HIERARCHY
ROOT hip
{
	OFFSET 0.000000 0.000000 0.000000 
	CHANNELS 6 Xposition Yposition Zposition Xrotation Zrotation Yrotation
	JOINT abdomen
	{
		OFFSET 0.000000 3.402643 0.000000 
		CHANNELS 3 Xrotation Zrotation Yrotation
		JOINT chest
		{
			OFFSET 0.000000 8.438565 -0.680529 
			CHANNELS 3 Xrotation Zrotation Yrotation
			JOINT neck
			{
				OFFSET 0.000000 10.207942 -0.272212 
				CHANNELS 3 Xrotation Zrotation Yrotation
				JOINT head
				{
					OFFSET 0.000000 3.130431 0.000000 
					CHANNELS 3 Xrotation Zrotation Yrotation
					End Site
					{
						OFFSET 0.000000 3.130435 0.000000 
					}
				}
			}
			JOINT lCollar
			{
				OFFSET 3.470700 6.669187 -0.816635 
				CHANNELS 3 Yrotation Zrotation Xrotation
				JOINT lShldr
				{
					OFFSET 3.198488 0.000000 0.000000 
					CHANNELS 3 Zrotation Yrotation Xrotation
					JOINT lForeArm
					{
						OFFSET 10.139888 0.000000 0.000000 
						CHANNELS 3 Yrotation Zrotation Xrotation
						JOINT lHand
						{
							OFFSET 8.370511 0.000000 0.000000 
							CHANNELS 3 Zrotation Yrotation Xrotation
							End Site
							{
								OFFSET 4.083176 0.000000 0.000000 
							}
						}
					}
				}
			}
			JOINT rCollar
			{
				OFFSET -3.470700 6.669187 -0.816635 
				CHANNELS 3 Yrotation Zrotation Xrotation
				JOINT rShldr
				{
					OFFSET -3.198488 0.000000 0.000000 
					CHANNELS 3 Zrotation Yrotation Xrotation
					JOINT rForeArm
					{
						OFFSET -10.139888 0.000000 0.000000 
						CHANNELS 3 Yrotation Zrotation Xrotation
						JOINT rHand
						{
							OFFSET -8.370511 0.000000 0.000000 
							CHANNELS 3 Zrotation Yrotation Xrotation
							End Site
							{
								OFFSET -4.083176 0.000000 0.000000 
							}
						}
					}
				}
			}
		}
	}
	JOINT lThigh
	{
		OFFSET 5.308129 -1.633274 1.361059 
		CHANNELS 3 Xrotation Zrotation Yrotation
		JOINT lShin
		{
			OFFSET -2.041588 -20.007561 0.000000 
			CHANNELS 3 Xrotation Zrotation Yrotation
			JOINT lFoot
			{
				OFFSET 0.000000 -19.190928 -1.224953 
				CHANNELS 3 Xrotation Yrotation Zrotation
				End Site
				{
					OFFSET 0.000000 -2.449906 4.627600 
				}
			}
		}
	}
	JOINT rThigh
	{
		OFFSET -5.308129 -1.633274 1.361059 
		CHANNELS 3 Xrotation Zrotation Yrotation
		JOINT rShin
		{
			OFFSET 2.041588 -20.007561 0.000000 
			CHANNELS 3 Xrotation Zrotation Yrotation
			JOINT rFoot
			{
				OFFSET 0.000000 -19.190928 -1.224953 
				CHANNELS 3 Xrotation Yrotation Zrotation
				End Site
				{
					OFFSET 0.000000 -2.449906 4.627600 
				}
			}
		}
	}
}
MOTION
Frames: 6
Frame Time: 0.011111
-2.554387 53.076733 -37.223907 2.666942 -6.189236 3.181828 27.092459 2.709541 3.817603 -25.083042 6.707046 0.845404 -16.246014 -10.936997 -2.335963 41.947964 14.735385 -2.327660 6.655530 -7.385053 2.814211 -71.474739 -27.650269 23.822300 -53.002686 8.321532 9.375919 8.524705 12.647240 -52.454479 -7.245022 1.299557 2.988899 70.717201 27.207850 10.467916 53.637466 -8.451505 9.656476 -8.534408 -12.637552 59.388531 -24.916241 13.356072 2.814420 60.424458 -2.690713 -8.180557 -14.639815 -5.274492 -4.473380 -4.566122 3.629452 0.955881 28.873756 5.393708 4.700637 -23.044657 -2.084901 1.603111 
-2.600439 53.018539 -36.749069 2.601999 -6.746925 2.850973 27.102577 2.961685 4.457250 -24.866642 6.751977 0.994286 -16.329880 -10.800033 -2.391888 41.810413 14.414078 -2.561142 6.655530 -7.385053 2.814211 -71.648880 -27.577133 24.051949 -53.455948 8.407482 9.564290 8.524705 12.647240 -52.386124 -7.245022 1.299557 2.988899 70.452805 27.672369 10.767202 54.006634 -8.517571 9.816103 -8.534408 -12.637552 59.574078 -25.979330 14.097457 2.725280 59.387798 -2.817744 -8.100000 -15.584125 -4.711858 -4.338022 -3.735746 4.535871 1.966457 28.693590 5.402906 4.677364 -23.252972 -2.830368 1.285198 
-2.562789 53.007965 -36.308136 2.777175 -6.516487 2.939625 26.935314 2.732425 4.514389 -24.925480 6.677943 1.032082 -16.054615 -10.968607 -2.451146 41.597645 14.654890 -2.601582 6.655530 -7.385053 2.814211 -71.735786 -27.442492 24.365248 -53.793804 8.471207 9.712009 8.524705 12.647240 -52.366592 -7.245022 1.299557 2.988899 70.218330 27.947765 10.875466 54.238811 -8.557456 9.913095 -8.534408 -12.637552 59.710796 -26.862438 13.514219 2.341543 58.136017 -2.952823 -7.984861 -16.607315 -3.492439 -3.986506 -3.295379 4.171737 1.613315 28.473198 5.418014 4.631725 -23.630562 -2.460705 1.376939 
-2.564033 52.976536 -35.870010 2.895542 -6.587325 2.854609 26.882151 2.729469 4.698361 -24.886019 6.622348 1.089580 -15.918606 -11.282594 -2.471123 41.457424 15.064747 -2.554316 6.655530 -7.385053 2.814211 -71.800079 -27.574505 24.552687 -54.004269 8.506093 9.799028 8.524705 12.647240 -52.141979 -7.245022 1.299557 2.988899 70.015083 28.230198 11.210466 54.606983 -8.612382 10.055921 -8.534408 -12.637552 60.052593 -27.813873 13.403980 1.894147 56.805305 -3.108187 -7.851631 -14.865053 -1.469804 -3.391948 -2.730311 4.309015 1.826538 28.222370 5.428403 4.621148 -24.138435 -2.471514 1.303346 
-2.576791 52.943237 -35.443085 2.976058 -6.880260 2.762258 26.952070 2.937957 4.972514 -24.856310 6.459029 1.143895 -16.004612 -11.367767 -2.455761 41.399254 15.327994 -2.473263 6.655530 -7.385053 2.814211 -71.767166 -27.645866 24.775175 -54.384377 8.571936 9.958409 8.524705 12.647240 -51.741589 -7.245022 1.299557 2.988899 69.939156 28.648825 11.533236 54.946117 -8.673112 10.215590 -8.534408 -12.637552 60.238144 -28.760435 13.637971 1.441947 55.316139 -3.256455 -7.737333 -13.611075 0.112954 -3.025902 -2.059882 4.764877 2.213372 27.922382 5.442087 4.568904 -24.394783 -2.737700 1.159456 
-2.579280 52.917412 -35.008072 3.055662 -7.029262 2.725639 27.006334 2.990946 5.137028 -25.131126 6.272685 1.167084 -15.802938 -11.219586 -2.469913 41.356640 15.391667 -2.381699 6.655530 -7.385053 2.814211 -71.667610 -27.369635 24.875162 -54.668118 8.614039 10.080527 8.524705 12.647240 -51.731823 -7.245022 1.299557 2.988899 69.921822 28.768063 11.789747 55.284203 -8.725018 10.358784 -8.534408 -12.637552 60.286964 -29.569822 13.652325 0.971599 53.719601 -3.429632 -7.555063 -18.349838 -2.208306 -3.541402 -1.346165 4.996059 2.462531 27.490780 5.462831 4.525517 -24.460718 -3.027097 1.027247 
